<?xml version="1.0" encoding="iso-8859-1"?>
<!-- Generator: Adobe Illustrator 26.1.0, SVG Export Plug-In . SVG Version: 6.00 Build 0)  -->
<svg version="1.1" id="Tone" xmlns="http://www.w3.org/2000/svg" xmlns:xlink="http://www.w3.org/1999/xlink" x="0px" y="0px"
	 viewBox="0 0 50 50" style="enable-background:new 0 0 50 50;" xml:space="preserve">
<g id="Line">
</g>
<g>
	<path d="M28.411,24.211c-0.869,0.812-1.078,2.352-0.46,3.457c0.471,0.844,1.201,1.264,2.127,1.257
		c1.671-0.013,2.539-1.33,2.583-2.64c-0.073-0.339-0.125-0.684-0.223-1.015C31.914,23.503,29.668,23.036,28.411,24.211z"/>
	<path d="M5,5v40h40V5H5z M18.318,22.628c-0.005-0.005-0.011-0.009-0.016-0.014c-0.575,0.635-1.128,1.247-1.697,1.876
		c-0.888-0.761-1.821-1.077-2.917-0.793c-0.585,0.151-1.014,0.503-1.359,0.965c-0.791,1.059-0.623,2.627,0.331,3.582
		c0.822,0.823,2.631,1.001,3.957-0.249c0.174,0.16,0.356,0.317,0.526,0.486c0.355,0.356,0.699,0.723,1.059,1.075
		c0.142,0.139,0.152,0.272,0.009,0.387c-0.376,0.303-0.735,0.643-1.152,0.876c-2.142,1.194-4.885,0.832-6.605-0.915
		c-1.103-1.12-1.554-2.52-1.436-4.092c0.1-1.332,0.596-2.485,1.603-3.384c2.241-2.001,5.545-2.024,7.681,0.185
		c0.001-0.002,0.003-0.004,0.005-0.006C18.335,22.655,18.329,22.639,18.318,22.628z M21.878,31.499
		c-0.952,0.001-1.682-0.754-1.68-1.763c0.002-0.919,0.601-1.706,1.471-1.729c1.098-0.029,1.918,0.414,1.929,1.814
		C23.607,30.781,22.872,31.498,21.878,31.499z M35.231,31.269c-0.899,0-1.802,0-2.737,0c0-0.272,0-0.543,0-0.855
		c-0.088,0.049-0.138,0.069-0.179,0.101c-1.521,1.187-3.146,1.299-4.857,0.463c-1.504-0.735-2.32-1.979-2.604-3.592
		c-0.296-1.684,0.028-3.221,1.057-4.621c1.402-1.908,4.421-2.478,6.395-0.802c0.041,0.035,0.09,0.06,0.189,0.126
		c0-0.324,0-0.59,0-0.871c0.921,0,1.819,0,2.737,0C35.231,24.561,35.231,27.904,35.231,31.269z M40.835,31.275
		c-0.924,0-1.837,0-2.767,0c0-3.348,0-6.692,0-10.06c0.928,0,1.841,0,2.767,0C40.835,24.573,40.835,27.916,40.835,31.275z
		 M39.517,19.637c-0.893,0.024-1.633-0.686-1.639-1.574c-0.005-0.749,0.69-1.561,1.356-1.582C40.371,16.446,40.97,16.995,41,18.1
		C41.022,18.947,40.378,19.614,39.517,19.637z"/>
</g>
</svg>