<?xml version="1.0" encoding="iso-8859-1"?>
<!-- Generator: Adobe Illustrator 26.1.0, SVG Export Plug-In . SVG Version: 6.00 Build 0)  -->
<svg fill="#008846" version="1.1" id="Tone" xmlns="http://www.w3.org/2000/svg" xmlns:xlink="http://www.w3.org/1999/xlink" x="0px" y="0px"
	 viewBox="0 0 50 50" style="enable-background:new 0 0 50 50;" xml:space="preserve">
<g id="Line">
</g>
<g>
	<g>
		<g>
			<circle cx="30" cy="24" r="2"/>
		</g>
	</g>
	<g>
		<g>
			<circle cx="20" cy="24" r="2"/>
		</g>
	</g>
	<g>
		<g>
			<circle cx="30" cy="41" r="2"/>
		</g>
	</g>
	<g>
		<g>
			<path d="M26.117,17H25.23C25.481,17.136,25.797,17.118,26.117,17z"/>
		</g>
	</g>
</g>
<g>
	<path d="M25,2C12.317,2,2,12.317,2,25s10.317,23,23,23s23-10.317,23-23S37.683,2,25,2z M39,40.608
		c-0.624,0.561-1.275,1.09-1.963,1.574C37.025,42.12,37,42.064,37,42v-3c0-0.553,0.447-1,1-1s1,0.447,1,1V40.608z M25,39h-9v4.945
		c-0.688-0.329-1.355-0.692-2-1.09V36c0-0.553,0.447-1,1-1h20c0.553,0,1,0.447,1,1v6.854c-2.936,1.816-6.344,2.922-10,3.095V40
		C26,39.447,25.553,39,25,39z M26.073,9.672c0.257,0.147,0.403,0.232,0.714,0.41c-0.722-0.963-0.031-1.434,0.44-1.948
		c0.286-0.312,0.808-0.747,1.16-0.979l0.767,0.501l-0.1-0.844c0.099-0.164,0.303-0.276,0.575-0.327
		c0.863-0.161,1.729-0.302,2.754-0.478c-0.136,0.479-0.207,0.76-0.295,1.036c-0.194,0.61-0.396,1.217-0.597,1.825
		c-0.192,0.581-0.193,0.581-0.845,0.63c0.189,0.142,0.337,0.253,0.536,0.403c-0.409,0.557-0.458,1.462-1.522,1.338
		c0.17,0.098,0.341,0.195,0.577,0.331c-0.214,0.375-0.351,0.819-0.648,1.079c-0.272,0.237-0.719,0.274-1.103,0.405
		c0.126,0.086,0.276,0.19,0.467,0.321c-0.425,0.811-0.758,1.67-1.953,1.81c0.261,0.12,0.397,0.182,0.53,0.243
		c-0.105,0.68-0.763,1.335-1.414,1.574H33c1.654,0,3,1.346,3,3v10c0,1.654-1.346,3-3,3H17c-1.654,0-3-1.346-3-3V20
		c0-1.654,1.346-3,3-3h8.23c-0.01-0.005-0.021-0.005-0.031-0.01c0.779-3.201,2.373-6,4.3-8.638c-2.187,2.498-3.681,5.385-4.72,8.534
		c-0.588-0.399-0.933-1.629-0.603-2.172c0.076-0.125,0.309-0.156,0.466-0.229c-0.418-0.59-0.421-1.332,0.037-2.205
		c0.193,0.105,0.385,0.211,0.597,0.326C24.504,11.312,25.796,10.685,26.073,9.672z M12,38c0.553,0,1,0.447,1,1v3
		c0,0.064-0.025,0.12-0.037,0.181c-0.688-0.484-1.339-1.013-1.963-1.574V39C11,38.447,11.447,38,12,38z"/>
</g>
</svg>